<svg width="110" height="67" viewBox="0 0 110 67" fill="none" xmlns="http://www.w3.org/2000/svg">
<path fill-rule="evenodd" clip-rule="evenodd" d="M19.3012 16.9705C17.7549 16.9705 16.5016 15.7059 16.5016 14.1461C16.5016 12.5859 17.7549 11.3215 19.3012 11.3215C20.8474 11.3215 22.101 12.5859 22.101 14.1461C22.101 15.7059 20.8474 16.9705 19.3012 16.9705ZM19.3012 8C15.9289 8 13.1953 10.7578 13.1953 14.1602C13.1953 15.3205 13.514 16.4061 14.0673 17.3324C14.1802 17.522 14.303 17.7046 14.435 17.88L14.8405 18.4473L19.3012 23.8741L24.168 17.8793C24.9452 16.8456 25.407 15.5573 25.407 14.1602C25.407 10.7578 22.6734 8 19.3012 8Z" fill="#0468FF"/>
<path fill-rule="evenodd" clip-rule="evenodd" d="M21.6304 36.6211V26.2836H17.1073V31.1389L12.5869 25.6602L0 40.9158L4.18701 44.4316L12.5869 34.2509L20.9865 44.4316L25.1736 40.9158L21.6304 36.6211Z" fill="#0468FF"/>
<path fill-rule="evenodd" clip-rule="evenodd" d="M49.3719 26.2695H45.3606V40.36H37.4329V26.2695H33.4219V44.1025H48.1919V47.6812H51.8257V40.36H49.3719V26.2695Z" fill="#152242"/>
<path fill-rule="evenodd" clip-rule="evenodd" d="M58.6399 38.2734V26.2676H54.6289V44.1007H58.6399L67.0398 32.0947V44.1007H71.0508V26.2676H67.0398L58.6399 38.2734Z" fill="#152242"/>
<path fill-rule="evenodd" clip-rule="evenodd" d="M105.613 26.2695V33.2768H97.4256V26.2695H93.4141V44.1025H97.4256V37.0447H105.613V44.1025H109.6V26.2695H105.613Z" fill="#152242"/>
<path fill-rule="evenodd" clip-rule="evenodd" d="M85.5386 36.5711C85.5386 37.9709 85.1462 39.0663 84.3721 39.827C83.5885 40.5965 82.4506 40.987 80.9899 40.987C79.1632 40.987 78.157 40.1565 78.157 38.6485C78.157 37.0755 79.4728 36.1365 81.6762 36.1365H85.5386V36.5711ZM82.1912 25.9277C80.0954 25.9277 78.2902 26.4936 76.9697 27.5641C75.7355 28.5648 75.0042 29.9631 74.9053 31.5038H78.8588C79.0399 30.6765 79.9162 29.3858 82.1912 29.3858C84.2872 29.3858 85.5386 30.6485 85.5386 32.7631V32.8516H81.5046C79.116 32.8516 77.2707 33.3965 76.0205 34.4711C74.8224 35.5007 74.2148 36.9643 74.2148 38.8214C74.2148 40.4224 74.8396 41.859 75.9744 42.8663C77.1377 43.8992 78.7536 44.4451 80.6471 44.4451C83.6132 44.4451 85.2267 42.9848 85.7822 42.3594L86.0956 44.0987H89.4811V32.7631C89.4811 28.547 86.6876 25.9277 82.1912 25.9277Z" fill="#152242"/>
</svg>
